# xmcd CD database file
#
# Track frame offsets:
#	150
#	5470
#	47708
#	88584
#	130507
#	177285
#	211832
#	257499
#	301562
#
# Disc length: 4435 seconds
#
# Revision: 0
# Processed by: cddbd v1.5.2PL0 Copyright (c) Steve Scherf et al.
# Submitted via: CDex 1.70beta2
#
DISCID=62115109
DTITLE=Thelonious Monk Quartet - The last Concerts CD 1
DYEAR=2009
DGENRE=Jazz
TTITLE0=Announcement
TTITLE1=I mean you
TTITLE2=Ba-lue bolivar ba-lues-are
TTITLE3=We see
TTITLE4=Misterioso
TTITLE5=Round midnight
TTITLE6=Straight no Chaser
TTITLE7=Off Minor
TTITLE8=Round Midnight
EXTD=YEAR: 2009
EXTT0=
EXTT1=
EXTT2=
EXTT3=
EXTT4=
EXTT5=
EXTT6=
EXTT7=
EXTT8=
PLAYORDER=
